ISO-10303-21;
HEADER;
FILE_DESCRIPTION (( 'STEP AP214' ),
    '1' );
FILE_NAME ('bearing_brian.STEP',
    '2025-10-14T14:36:58',
    ( '' ),
    ( '' ),
    'SwSTEP 2.0',
    'SolidWorks 2025',
    '' );
FILE_SCHEMA (( 'AUTOMOTIVE_DESIGN' ));
ENDSEC;

DATA;
#1 = FACE_OUTER_BOUND ( 'NONE', #205, .T. ) ;
#2 = CARTESIAN_POINT ( 'NONE',  ( -5.999999999999998224, 0.000000000000000000, 1.959434878635764737E-15 ) ) ;
#3 = CARTESIAN_POINT ( 'NONE',  ( 5.999999999999997335, 2.357445088358654363E-15, 19.24999999999999645 ) ) ;
#4 = CARTESIAN_POINT ( 'NONE',  ( -5.999999999999998224, 0.000000000000000000, 1.959434878635764737E-15 ) ) ;
#5 =( LENGTH_UNIT ( ) NAMED_UNIT ( * ) SI_UNIT ( .MILLI., .METRE. ) );
#6 = ORIENTED_EDGE ( 'NONE', *, *, #399, .T. ) ;
#7 = TOROIDAL_SURFACE ( 'NONE', #316, 19.24999999999999645, 4.000000000000000000 ) ;
#8 = DIRECTION ( 'NONE',  ( 0.000000000000000000, 0.000000000000000000, -1.000000000000000000 ) ) ;
#9 = VERTEX_POINT ( 'NONE', #113 ) ;
#10 = ORIENTED_EDGE ( 'NONE', *, *, #413, .F. ) ;
#11 = PRODUCT_DEFINITION_CONTEXT ( 'detailed design', #69, 'design' ) ;
#12 = CARTESIAN_POINT ( 'NONE',  ( 9.999999999999994671, 0.000000000000000000, 3.861881440354283833E-31 ) ) ;
#13 = AXIS2_PLACEMENT_3D ( 'NONE', #396, #163, #131 ) ;
#14 = PRODUCT_DEFINITION ( 'UNKNOWN', '', #301, #11 ) ;
#15 = CYLINDRICAL_SURFACE ( 'NONE', #263, 4.000000000000000000 ) ;
#16 = CARTESIAN_POINT ( 'NONE',  ( -10.00000000000000000, 0.000000000000000000, 1.224646799147353256E-15 ) ) ;
#17 = EDGE_LOOP ( 'NONE', ( #415, #283, #210, #108 ) ) ;
#18 = SHAPE_DEFINITION_REPRESENTATION ( #269, #82 ) ;
#19 = CARTESIAN_POINT ( 'NONE',  ( -2.000000000000000000, 0.000000000000000000, -15.24999999999999645 ) ) ;
#20 = ADVANCED_FACE ( 'NONE', ( #300, #440 ), #79, .F. ) ;
#21 = CIRCLE ( 'NONE', #331, 25.74999999999999645 ) ;
#22 = AXIS2_PLACEMENT_3D ( 'NONE', #312, #204, #29 ) ;
#23 = DIRECTION ( 'NONE',  ( -1.000000000000000000, 0.000000000000000000, 1.224646799147353207E-16 ) ) ;
#24 = ORIENTED_EDGE ( 'NONE', *, *, #328, .T. ) ;
#25 = CARTESIAN_POINT ( 'NONE',  ( 9.999999999999998224, 0.000000000000000000, 0.000000000000000000 ) ) ;
#26 = DIRECTION ( 'NONE',  ( 0.000000000000000000, 1.224646799147353454E-16, 1.000000000000000000 ) ) ;
#27 = EDGE_LOOP ( 'NONE', ( #379, #6 ) ) ;
#28 = AXIS2_PLACEMENT_3D ( 'NONE', #313, #453, #280 ) ;
#29 = DIRECTION ( 'NONE',  ( -1.224646799147353207E-16, 0.000000000000000000, -1.000000000000000000 ) ) ;
#30 = EDGE_LOOP ( 'NONE', ( #202, #429, #24, #10 ) ) ;
#31 = LINE ( 'NONE', #356, #42 ) ;
#32 = ORIENTED_EDGE ( 'NONE', *, *, #242, .T. ) ;
#33 = CARTESIAN_POINT ( 'NONE',  ( 9.999999999999992895, 4.898587196589412829E-16, -4.000000000000000888 ) ) ;
#34 = VERTEX_POINT ( 'NONE', #182 ) ;
#35 = EDGE_CURVE ( 'NONE', #48, #137, #145, .T. ) ;
#36 = DIRECTION ( 'NONE',  ( 1.000000000000000000, 0.000000000000000000, 0.000000000000000000 ) ) ;
#37 = EDGE_LOOP ( 'NONE', ( #172, #460 ) ) ;
#38 = ORIENTED_EDGE ( 'NONE', *, *, #267, .T. ) ;
#39 =( NAMED_UNIT ( * ) PLANE_ANGLE_UNIT ( ) SI_UNIT ( $, .RADIAN. ) );
#40 = DIRECTION ( 'NONE',  ( 1.000000000000000000, -0.000000000000000000, -1.224646799147353207E-16 ) ) ;
#41 = FACE_OUTER_BOUND ( 'NONE', #323, .T. ) ;
#42 = VECTOR ( 'NONE', #426, 1000.000000000000000 ) ;
#43 = FILL_AREA_STYLE_COLOUR ( '', #255 ) ;
#44 = CYLINDRICAL_SURFACE ( 'NONE', #324, 15.24999999999999822 ) ;
#45 = FACE_OUTER_BOUND ( 'NONE', #254, .T. ) ;
#46 = EDGE_CURVE ( 'NONE', #427, #438, #207, .T. ) ;
#47 = CARTESIAN_POINT ( 'NONE',  ( -1.999999999999998224, 0.000000000000000000, 1.469576158976823553E-15 ) ) ;
#48 = VERTEX_POINT ( 'NONE', #110 ) ;
#49 = PRESENTATION_LAYER_ASSIGNMENT (  '', '', ( #168 ) ) ;
#50 = DIRECTION ( 'NONE',  ( -1.347358039593636473E-16, 0.000000000000000000, -1.000000000000000000 ) ) ;
#51 = VERTEX_POINT ( 'NONE', #365 ) ;
#52 = LINE ( 'NONE', #121, #230 ) ;
#53 = ADVANCED_FACE ( 'NONE', ( #41 ), #7, .F. ) ;
#54 = PLANE ( 'NONE',  #454 ) ;
#55 = VERTEX_POINT ( 'NONE', #298 ) ;
#56 = AXIS2_PLACEMENT_3D ( 'NONE', #12, #127, #153 ) ;
#57 = DIRECTION ( 'NONE',  ( 1.351732578683226480E-16, 0.000000000000000000, 1.000000000000000000 ) ) ;
#58 = DIRECTION ( 'NONE',  ( -1.347358039593636473E-16, 0.000000000000000000, -1.000000000000000000 ) ) ;
#59 = ORIENTED_EDGE ( 'NONE', *, *, #96, .F. ) ;
#60 = DIRECTION ( 'NONE',  ( 1.000000000000000000, -0.000000000000000000, -1.224646799147353207E-16 ) ) ;
#61 = EDGE_LOOP ( 'NONE', ( #315, #395 ) ) ;
#62 = CIRCLE ( 'NONE', #293, 25.75000000000000000 ) ;
#63 = DIRECTION ( 'NONE',  ( 1.000000000000000000, -0.000000000000000000, -1.224646799147353207E-16 ) ) ;
#64 = ORIENTED_EDGE ( 'NONE', *, *, #349, .T. ) ;
#65 = CARTESIAN_POINT ( 'NONE',  ( 1.999999999999993117, 0.000000000000000000, -15.24999999999999645 ) ) ;
#66 = EDGE_CURVE ( 'NONE', #104, #51, #62, .T. ) ;
#67 = ORIENTED_EDGE ( 'NONE', *, *, #135, .T. ) ;
#68 = ORIENTED_EDGE ( 'NONE', *, *, #357, .T. ) ;
#69 = APPLICATION_CONTEXT ( 'automotive_design' ) ;
#70 = CARTESIAN_POINT ( 'NONE',  ( 1.999999999999992673, 0.000000000000000000, -19.24999999999999645 ) ) ;
#71 = AXIS2_PLACEMENT_3D ( 'NONE', #70, #261, #8 ) ;
#72 = CARTESIAN_POINT ( 'NONE',  ( 1.999999999999994893, 0.000000000000000000, 9.797174393178831574E-16 ) ) ;
#73 = AXIS2_PLACEMENT_3D ( 'NONE', #191, #274, #50 ) ;
#74 = EDGE_CURVE ( 'NONE', #438, #427, #238, .T. ) ;
#75 = CYLINDRICAL_SURFACE ( 'NONE', #384, 25.75000000000000000 ) ;
#76 = DIRECTION ( 'NONE',  ( -1.137523590804463822E-16, 0.000000000000000000, -1.000000000000000000 ) ) ;
#77 = CARTESIAN_POINT ( 'NONE',  ( 9.999999999999992895, 4.898587196589413815E-16, -4.000000000000000888 ) ) ;
#78 = UNCERTAINTY_MEASURE_WITH_UNIT (LENGTH_MEASURE( 1.000000000000000082E-05 ), #5, 'distance_accuracy_value', 'NONE');
#79 = PLANE ( 'NONE',  #410 ) ;
#80 = DIRECTION ( 'NONE',  ( 1.224646799147353207E-16, 0.000000000000000000, 1.000000000000000000 ) ) ;
#81 = ORIENTED_EDGE ( 'NONE', *, *, #449, .F. ) ;
#82 = ADVANCED_BREP_SHAPE_REPRESENTATION ( 'bearing_brian', ( #420, #150 ), #188 ) ;
#83 = CARTESIAN_POINT ( 'NONE',  ( 9.999999999999994671, 0.000000000000000000, 3.861881440354283833E-31 ) ) ;
#84 = DIRECTION ( 'NONE',  ( 0.000000000000000000, 0.000000000000000000, 1.000000000000000000 ) ) ;
#85 = DIRECTION ( 'NONE',  ( -1.000000000000000000, 0.000000000000000000, 1.224646799147353207E-16 ) ) ;
#86 = ORIENTED_EDGE ( 'NONE', *, *, #148, .T. ) ;
#87 = CIRCLE ( 'NONE', #442, 25.75000000000000000 ) ;
#88 = ADVANCED_FACE ( 'NONE', ( #226 ), #44, .T. ) ;
#89 = DIRECTION ( 'NONE',  ( 0.000000000000000000, 0.000000000000000000, 1.000000000000000000 ) ) ;
#90 = ORIENTED_EDGE ( 'NONE', *, *, #375, .T. ) ;
#91 = CARTESIAN_POINT ( 'NONE',  ( 9.999999999999992895, 0.000000000000000000, 3.999999999999999112 ) ) ;
#92 = DIRECTION ( 'NONE',  ( 1.000000000000000000, -0.000000000000000000, -1.224646799147353207E-16 ) ) ;
#93 = CIRCLE ( 'NONE', #317, 4.000000000000000000 ) ;
#94 = CARTESIAN_POINT ( 'NONE',  ( -6.000000000000001776, 0.000000000000000000, -25.74999999999999289 ) ) ;
#95 = EDGE_LOOP ( 'NONE', ( #398, #90, #32, #244 ) ) ;
#96 = EDGE_CURVE ( 'NONE', #100, #287, #21, .T. ) ;
#97 = FACE_OUTER_BOUND ( 'NONE', #397, .T. ) ;
#98 = ORIENTED_EDGE ( 'NONE', *, *, #135, .F. ) ;
#99 = CARTESIAN_POINT ( 'NONE',  ( 1.999999999999994893, 0.000000000000000000, 9.797174393178831574E-16 ) ) ;
#100 = VERTEX_POINT ( 'NONE', #373 ) ;
#101 = ADVANCED_FACE ( 'NONE', ( #45 ), #186, .T. ) ;
#102 = DIRECTION ( 'NONE',  ( -1.000000000000000000, 0.000000000000000000, 1.224646799147353207E-16 ) ) ;
#103 = AXIS2_PLACEMENT_3D ( 'NONE', #268, #311, #57 ) ;
#104 = VERTEX_POINT ( 'NONE', #146 ) ;
#105 = LINE ( 'NONE', #250, #401 ) ;
#106 = ORIENTED_EDGE ( 'NONE', *, *, #399, .F. ) ;
#107 = CARTESIAN_POINT ( 'NONE',  ( 9.999999999999998224, 0.000000000000000000, 0.000000000000000000 ) ) ;
#108 = ORIENTED_EDGE ( 'NONE', *, *, #242, .F. ) ;
#109 = EDGE_CURVE ( 'NONE', #287, #100, #392, .T. ) ;
#110 = CARTESIAN_POINT ( 'NONE',  ( -6.000000000000000888, 2.357445088358654363E-15, -19.24999999999999645 ) ) ;
#111 = AXIS2_PLACEMENT_3D ( 'NONE', #428, #457, #26 ) ;
#112 = CARTESIAN_POINT ( 'NONE',  ( 9.999999999999996447, 0.000000000000000000, 1.930940720177141916E-31 ) ) ;
#113 = CARTESIAN_POINT ( 'NONE',  ( -5.999999999999996447, 0.000000000000000000, 19.24999999999999645 ) ) ;
#114 = SURFACE_STYLE_USAGE ( .BOTH. , #366 ) ;
#115 = VERTEX_POINT ( 'NONE', #193 ) ;
#116 = APPLICATION_PROTOCOL_DEFINITION ( 'draft international standard', 'automotive_design', 1998, #405 ) ;
#117 = EDGE_CURVE ( 'NONE', #34, #287, #194, .T. ) ;
#118 = ORIENTED_EDGE ( 'NONE', *, *, #197, .T. ) ;
#119 = AXIS2_PLACEMENT_3D ( 'NONE', #369, #40, #289 ) ;
#120 = CIRCLE ( 'NONE', #56, 25.75000000000000000 ) ;
#121 = CARTESIAN_POINT ( 'NONE',  ( 9.999999999999994671, 0.000000000000000000, -25.75000000000000000 ) ) ;
#122 = DIRECTION ( 'NONE',  ( 1.000000000000000000, -0.000000000000000000, -1.224646799147353207E-16 ) ) ;
#123 = EDGE_CURVE ( 'NONE', #458, #100, #305, .T. ) ;
#124 = PRODUCT_CONTEXT ( 'NONE', #405, 'mechanical' ) ;
#125 = DIRECTION ( 'NONE',  ( -1.000000000000000000, 0.000000000000000000, 1.224646799147353207E-16 ) ) ;
#126 = CIRCLE ( 'NONE', #225, 15.24999999999999822 ) ;
#127 = DIRECTION ( 'NONE',  ( 1.000000000000000000, -0.000000000000000000, -1.224646799147353207E-16 ) ) ;
#128 = DIRECTION ( 'NONE',  ( -1.347358039593636719E-16, 0.000000000000000000, -1.000000000000000000 ) ) ;
#129 = CYLINDRICAL_SURFACE ( 'NONE', #239, 25.74999999999999645 ) ;
#130 = ORIENTED_EDGE ( 'NONE', *, *, #177, .T. ) ;
#131 = DIRECTION ( 'NONE',  ( 0.000000000000000000, 0.000000000000000000, -1.000000000000000000 ) ) ;
#132 = ORIENTED_EDGE ( 'NONE', *, *, #46, .T. ) ;
#133 = DIRECTION ( 'NONE',  ( -1.224646799147353207E-16, 0.000000000000000000, -1.000000000000000000 ) ) ;
#134 = ORIENTED_EDGE ( 'NONE', *, *, #154, .T. ) ;
#135 = EDGE_CURVE ( 'NONE', #448, #249, #294, .T. ) ;
#136 = CARTESIAN_POINT ( 'NONE',  ( 5.999999999999994671, 0.000000000000000000, 4.898587196589417759E-16 ) ) ;
#137 = VERTEX_POINT ( 'NONE', #19 ) ;
#138 = DIRECTION ( 'NONE',  ( -1.000000000000000000, 0.000000000000000000, 1.224646799147353207E-16 ) ) ;
#139 = AXIS2_PLACEMENT_3D ( 'NONE', #275, #138, #390 ) ;
#140 = ORIENTED_EDGE ( 'NONE', *, *, #337, .T. ) ;
#141 = DIRECTION ( 'NONE',  ( 1.137523590804463822E-16, 0.000000000000000000, 1.000000000000000000 ) ) ;
#142 = DIRECTION ( 'NONE',  ( 1.000000000000000000, -0.000000000000000000, -1.224646799147353207E-16 ) ) ;
#143 = EDGE_LOOP ( 'NONE', ( #68, #38, #252, #174 ) ) ;
#144 = DIRECTION ( 'NONE',  ( 1.000000000000000000, -0.000000000000000000, -1.224646799147353207E-16 ) ) ;
#145 = CIRCLE ( 'NONE', #196, 4.000000000000000000 ) ;
#146 = CARTESIAN_POINT ( 'NONE',  ( 9.999999999999991118, 0.000000000000000000, -25.75000000000000000 ) ) ;
#147 = DIRECTION ( 'NONE',  ( 1.499759782661857608E-32, 1.000000000000000000, 1.224646799147353207E-16 ) ) ;
#148 = EDGE_CURVE ( 'NONE', #161, #104, #52, .T. ) ;
#149 = DIRECTION ( 'NONE',  ( 1.000000000000000000, -0.000000000000000000, -1.224646799147353207E-16 ) ) ;
#150 = AXIS2_PLACEMENT_3D ( 'NONE', #213, #361, #36 ) ;
#151 = DIRECTION ( 'NONE',  ( -1.000000000000000000, 0.000000000000000000, 1.224646799147353207E-16 ) ) ;
#152 = CIRCLE ( 'NONE', #422, 25.75000000000000000 ) ;
#153 = DIRECTION ( 'NONE',  ( -1.347358039593636473E-16, 0.000000000000000000, -1.000000000000000000 ) ) ;
#154 = EDGE_CURVE ( 'NONE', #458, #34, #355, .T. ) ;
#155 = ORIENTED_EDGE ( 'NONE', *, *, #203, .F. ) ;
#156 = DIRECTION ( 'NONE',  ( -1.000000000000000000, -0.000000000000000000, 1.224646799147353207E-16 ) ) ;
#157 = DIRECTION ( 'NONE',  ( -1.000000000000000000, -0.000000000000000000, 1.224646799147353207E-16 ) ) ;
#158 = ORIENTED_EDGE ( 'NONE', *, *, #117, .T. ) ;
#159 = AXIS2_PLACEMENT_3D ( 'NONE', #16, #85, #270 ) ;
#160 = DIRECTION ( 'NONE',  ( 1.000000000000000000, -0.000000000000000000, -1.224646799147353207E-16 ) ) ;
#161 = VERTEX_POINT ( 'NONE', #412 ) ;
#162 = ADVANCED_FACE ( 'NONE', ( #304, #338 ), #54, .F. ) ;
#163 = DIRECTION ( 'NONE',  ( 0.000000000000000000, -1.000000000000000000, 0.000000000000000000 ) ) ;
#164 = DIRECTION ( 'NONE',  ( 0.000000000000000000, 0.000000000000000000, 1.000000000000000000 ) ) ;
#165 = VERTEX_POINT ( 'NONE', #233 ) ;
#166 = AXIS2_PLACEMENT_3D ( 'NONE', #371, #180, #219 ) ;
#167 = TOROIDAL_SURFACE ( 'NONE', #175, 19.24999999999999645, 4.000000000000000000 ) ;
#168 = STYLED_ITEM ( 'NONE', ( #333 ), #420 ) ;
#169 = PLANE ( 'NONE',  #383 ) ;
#170 = EDGE_LOOP ( 'NONE', ( #360, #232, #130, #354 ) ) ;
#171 = CARTESIAN_POINT ( 'NONE',  ( 5.999999999999994671, 0.000000000000000000, 4.898587196589417759E-16 ) ) ;
#172 = ORIENTED_EDGE ( 'NONE', *, *, #109, .T. ) ;
#173 = DIRECTION ( 'NONE',  ( 1.000000000000000000, -0.000000000000000000, -1.224646799147353207E-16 ) ) ;
#174 = ORIENTED_EDGE ( 'NONE', *, *, #148, .F. ) ;
#175 = AXIS2_PLACEMENT_3D ( 'NONE', #243, #63, #209 ) ;
#176 = ORIENTED_EDGE ( 'NONE', *, *, #197, .F. ) ;
#177 = EDGE_CURVE ( 'NONE', #249, #165, #342, .T. ) ;
#178 = FACE_BOUND ( 'NONE', #381, .T. ) ;
#179 = CARTESIAN_POINT ( 'NONE',  ( 9.999999999999998224, 0.000000000000000000, 0.000000000000000000 ) ) ;
#180 = DIRECTION ( 'NONE',  ( 1.000000000000000000, -0.000000000000000000, -1.224646799147353207E-16 ) ) ;
#181 = AXIS2_PLACEMENT_3D ( 'NONE', #336, #149, #76 ) ;
#182 = CARTESIAN_POINT ( 'NONE',  ( -10.00000000000000178, 0.000000000000000000, -25.74999999999999645 ) ) ;
#183 = EDGE_CURVE ( 'NONE', #137, #358, #414, .T. ) ;
#184 = CARTESIAN_POINT ( 'NONE',  ( 9.999999999999998224, 0.000000000000000000, 0.000000000000000000 ) ) ;
#185 = CARTESIAN_POINT ( 'NONE',  ( -2.000000000000000444, 2.357445088358654363E-15, -19.24999999999999645 ) ) ;
#186 = CYLINDRICAL_SURFACE ( 'NONE', #181, 15.24999999999999822 ) ;
#187 = ADVANCED_FACE ( 'NONE', ( #444 ), #344, .F. ) ;
#188 =( GEOMETRIC_REPRESENTATION_CONTEXT ( 3 ) GLOBAL_UNCERTAINTY_ASSIGNED_CONTEXT ( ( #403 ) ) GLOBAL_UNIT_ASSIGNED_CONTEXT ( ( #223, #299, #368 ) ) REPRESENTATION_CONTEXT ( 'NONE', 'WORKASPACE' ) );
#189 = CARTESIAN_POINT ( 'NONE',  ( 1.999999999999996669, 1.867586368699713376E-15, 15.25000000000000000 ) ) ;
#190 = AXIS2_PLACEMENT_3D ( 'NONE', #257, #218, #141 ) ;
#191 = CARTESIAN_POINT ( 'NONE',  ( -9.999999999999998224, 0.000000000000000000, 2.449293598294706119E-15 ) ) ;
#192 = ORIENTED_EDGE ( 'NONE', *, *, #154, .F. ) ;
#193 = CARTESIAN_POINT ( 'NONE',  ( -10.00000000000000000, 4.898587196589412829E-16, -3.999999999999999112 ) ) ;
#194 = LINE ( 'NONE', #417, #325 ) ;
#195 = VERTEX_POINT ( 'NONE', #189 ) ;
#196 = AXIS2_PLACEMENT_3D ( 'NONE', #185, #147, #411 ) ;
#197 = EDGE_CURVE ( 'NONE', #388, #137, #376, .T. ) ;
#198 = AXIS2_PLACEMENT_3D ( 'NONE', #99, #102, #318 ) ;
#199 = CIRCLE ( 'NONE', #103, 19.24999999999999645 ) ;
#200 = CARTESIAN_POINT ( 'NONE',  ( -1.999999999999996669, 1.867586368699713376E-15, 15.25000000000000000 ) ) ;
#201 = DIRECTION ( 'NONE',  ( 1.000000000000000000, -0.000000000000000000, -1.224646799147353207E-16 ) ) ;
#202 = ORIENTED_EDGE ( 'NONE', *, *, #35, .F. ) ;
#203 = EDGE_CURVE ( 'NONE', #165, #115, #271, .T. ) ;
#204 = DIRECTION ( 'NONE',  ( 1.000000000000000000, -0.000000000000000000, -1.224646799147353207E-16 ) ) ;
#205 = EDGE_LOOP ( 'NONE', ( #262, #462, #86, #281 ) ) ;
#206 = AXIS2_PLACEMENT_3D ( 'NONE', #112, #408, #80 ) ;
#207 = CIRCLE ( 'NONE', #119, 19.24999999999999645 ) ;
#208 = VECTOR ( 'NONE', #122, 1000.000000000000000 ) ;
#209 = DIRECTION ( 'NONE',  ( -1.224646799147353207E-16, 0.000000000000000000, -1.000000000000000000 ) ) ;
#210 = ORIENTED_EDGE ( 'NONE', *, *, #449, .T. ) ;
#211 = FACE_OUTER_BOUND ( 'NONE', #143, .T. ) ;
#212 = EDGE_LOOP ( 'NONE', ( #367, #224, #334, #229 ) ) ;
#213 = CARTESIAN_POINT ( 'NONE',  ( 0.000000000000000000, 0.000000000000000000, 0.000000000000000000 ) ) ;
#214 = ORIENTED_EDGE ( 'NONE', *, *, #183, .T. ) ;
#215 = ADVANCED_FACE ( 'NONE', ( #309 ), #15, .F. ) ;
#216 = CIRCLE ( 'NONE', #13, 4.000000000000000000 ) ;
#217 = CARTESIAN_POINT ( 'NONE',  ( -1.999999999999998224, 0.000000000000000000, 1.469576158976823553E-15 ) ) ;
#218 = DIRECTION ( 'NONE',  ( 1.000000000000000000, -0.000000000000000000, -1.224646799147353207E-16 ) ) ;
#219 = DIRECTION ( 'NONE',  ( -1.351732578683226480E-16, 0.000000000000000000, -1.000000000000000000 ) ) ;
#220 = FACE_OUTER_BOUND ( 'NONE', #212, .T. ) ;
#221 = EDGE_CURVE ( 'NONE', #9, #48, #199, .T. ) ;
#222 = ORIENTED_EDGE ( 'NONE', *, *, #291, .T. ) ;
#223 =( LENGTH_UNIT ( ) NAMED_UNIT ( * ) SI_UNIT ( .MILLI., .METRE. ) );
#224 = ORIENTED_EDGE ( 'NONE', *, *, #123, .T. ) ;
#225 = AXIS2_PLACEMENT_3D ( 'NONE', #72, #125, #273 ) ;
#226 = FACE_OUTER_BOUND ( 'NONE', #95, .T. ) ;
#227 = CARTESIAN_POINT ( 'NONE',  ( -5.999999999999995559, 0.000000000000000000, 25.75000000000000000 ) ) ;
#228 = DIRECTION ( 'NONE',  ( 1.224646799147353207E-16, 0.000000000000000000, 1.000000000000000000 ) ) ;
#229 = ORIENTED_EDGE ( 'NONE', *, *, #117, .F. ) ;
#230 = VECTOR ( 'NONE', #160, 1000.000000000000000 ) ;
#231 = FACE_OUTER_BOUND ( 'NONE', #30, .T. ) ;
#232 = ORIENTED_EDGE ( 'NONE', *, *, #277, .F. ) ;
#233 = CARTESIAN_POINT ( 'NONE',  ( -10.00000000000000000, 0.000000000000000000, 4.000000000000000888 ) ) ;
#234 = EDGE_CURVE ( 'NONE', #51, #104, #120, .T. ) ;
#235 = ORIENTED_EDGE ( 'NONE', *, *, #389, .F. ) ;
#236 = CARTESIAN_POINT ( 'NONE',  ( 9.999999999999992895, 0.000000000000000000, -1.224646799147352468E-15 ) ) ;
#237 =( GEOMETRIC_REPRESENTATION_CONTEXT ( 3 ) GLOBAL_UNCERTAINTY_ASSIGNED_CONTEXT ( ( #78 ) ) GLOBAL_UNIT_ASSIGNED_CONTEXT ( ( #5, #39, #327 ) ) REPRESENTATION_CONTEXT ( 'NONE', 'WORKASPACE' ) );
#238 = CIRCLE ( 'NONE', #166, 19.24999999999999645 ) ;
#239 = AXIS2_PLACEMENT_3D ( 'NONE', #25, #421, #352 ) ;
#240 = DIRECTION ( 'NONE',  ( -1.347358039593636473E-16, 0.000000000000000000, -1.000000000000000000 ) ) ;
#241 = EDGE_LOOP ( 'NONE', ( #391, #307 ) ) ;
#242 = EDGE_CURVE ( 'NONE', #195, #358, #126, .T. ) ;
#243 = CARTESIAN_POINT ( 'NONE',  ( 1.999999999999994893, 0.000000000000000000, 9.797174393178831574E-16 ) ) ;
#244 = ORIENTED_EDGE ( 'NONE', *, *, #183, .F. ) ;
#245 = CARTESIAN_POINT ( 'NONE',  ( 5.999999999999999112, 0.000000000000000000, 25.75000000000000000 ) ) ;
#246 = ORIENTED_EDGE ( 'NONE', *, *, #74, .T. ) ;
#247 = TOROIDAL_SURFACE ( 'NONE', #22, 19.24999999999999645, 4.000000000000000000 ) ;
#248 = DIRECTION ( 'NONE',  ( 1.000000000000000000, -0.000000000000000000, -1.224646799147353207E-16 ) ) ;
#249 = VERTEX_POINT ( 'NONE', #416 ) ;
#250 = CARTESIAN_POINT ( 'NONE',  ( 10.00000000000000000, 1.867586368699713376E-15, 15.24999999999999822 ) ) ;
#251 = ADVANCED_FACE ( 'NONE', ( #231 ), #430, .F. ) ;
#252 = ORIENTED_EDGE ( 'NONE', *, *, #66, .F. ) ;
#253 = PLANE ( 'NONE',  #206 ) ;
#254 = EDGE_LOOP ( 'NONE', ( #278, #118, #214, #222 ) ) ;
#255 = COLOUR_RGB ( '',0.7921568627450980005, 0.8196078431372548767, 0.9333333333333333481 ) ;
#256 = AXIS2_PLACEMENT_3D ( 'NONE', #47, #340, #306 ) ;
#257 = CARTESIAN_POINT ( 'NONE',  ( -1.999999999999998224, 0.000000000000000000, 1.469576158976823553E-15 ) ) ;
#258 = DIRECTION ( 'NONE',  ( -1.137523590804463822E-16, 0.000000000000000000, -1.000000000000000000 ) ) ;
#259 = ADVANCED_FACE ( 'NONE', ( #380 ), #247, .F. ) ;
#260 = DIRECTION ( 'NONE',  ( 1.000000000000000000, -0.000000000000000000, -1.224646799147353207E-16 ) ) ;
#261 = DIRECTION ( 'NONE',  ( -0.000000000000000000, -1.000000000000000000, 0.000000000000000000 ) ) ;
#262 = ORIENTED_EDGE ( 'NONE', *, *, #267, .F. ) ;
#263 = AXIS2_PLACEMENT_3D ( 'NONE', #236, #445, #447 ) ;
#264 = DIRECTION ( 'NONE',  ( -1.224646799147353207E-16, 0.000000000000000000, -1.000000000000000000 ) ) ;
#265 = CIRCLE ( 'NONE', #71, 4.000000000000000000 ) ;
#266 = CARTESIAN_POINT ( 'NONE',  ( 10.00000000000000178, 3.153465507804434009E-15, 25.74999999999999645 ) ) ;
#267 = EDGE_CURVE ( 'NONE', #55, #51, #31, .T. ) ;
#268 = CARTESIAN_POINT ( 'NONE',  ( -5.999999999999999112, 0.000000000000000000, 1.959434878635764737E-15 ) ) ;
#269 = PRODUCT_DEFINITION_SHAPE ( 'NONE', 'NONE',  #14 ) ;
#270 = DIRECTION ( 'NONE',  ( 0.000000000000000000, 0.000000000000000000, 1.000000000000000000 ) ) ;
#271 = CIRCLE ( 'NONE', #159, 4.000000000000000000 ) ;
#272 = ADVANCED_FACE ( 'NONE', ( #387 ), #129, .T. ) ;
#273 = DIRECTION ( 'NONE',  ( -1.137523590804463822E-16, 0.000000000000000000, -1.000000000000000000 ) ) ;
#274 = DIRECTION ( 'NONE',  ( 1.000000000000000000, -0.000000000000000000, -1.224646799147353207E-16 ) ) ;
#275 = CARTESIAN_POINT ( 'NONE',  ( 9.999999999999992895, 0.000000000000000000, -1.224646799147352468E-15 ) ) ;
#276 = CIRCLE ( 'NONE', #28, 19.24999999999999645 ) ;
#277 = EDGE_CURVE ( 'NONE', #249, #448, #347, .T. ) ;
#278 = ORIENTED_EDGE ( 'NONE', *, *, #375, .F. ) ;
#279 = CIRCLE ( 'NONE', #111, 4.000000000000000000 ) ;
#280 = DIRECTION ( 'NONE',  ( 1.351732578683226480E-16, 0.000000000000000000, 1.000000000000000000 ) ) ;
#281 = ORIENTED_EDGE ( 'NONE', *, *, #234, .F. ) ;
#282 = FACE_BOUND ( 'NONE', #456, .T. ) ;
#283 = ORIENTED_EDGE ( 'NONE', *, *, #74, .F. ) ;
#284 = CARTESIAN_POINT ( 'NONE',  ( -9.999999999999998224, 0.000000000000000000, 2.449293598294706119E-15 ) ) ;
#285 = EDGE_LOOP ( 'NONE', ( #155, #235 ) ) ;
#286 = EDGE_CURVE ( 'NONE', #55, #161, #303, .T. ) ;
#287 = VERTEX_POINT ( 'NONE', #94 ) ;
#288 = FILL_AREA_STYLE ('',( #43 ) ) ;
#289 = DIRECTION ( 'NONE',  ( -1.351732578683226480E-16, 0.000000000000000000, -1.000000000000000000 ) ) ;
#290 = DIRECTION ( 'NONE',  ( 1.000000000000000000, -0.000000000000000000, -1.224646799147353207E-16 ) ) ;
#291 = EDGE_CURVE ( 'NONE', #358, #195, #463, .T. ) ;
#292 = MECHANICAL_DESIGN_GEOMETRIC_PRESENTATION_REPRESENTATION (  '', ( #168 ), #237 ) ;
#293 = AXIS2_PLACEMENT_3D ( 'NONE', #83, #260, #409 ) ;
#294 = CIRCLE ( 'NONE', #446, 4.000000000000000000 ) ;
#295 = DIRECTION ( 'NONE',  ( -1.347358039593636473E-16, 0.000000000000000000, -1.000000000000000000 ) ) ;
#296 = ORIENTED_EDGE ( 'NONE', *, *, #123, .F. ) ;
#297 = FACE_OUTER_BOUND ( 'NONE', #241, .T. ) ;
#298 = CARTESIAN_POINT ( 'NONE',  ( 5.999999999999998224, 3.153465507804434404E-15, 25.75000000000000000 ) ) ;
#299 =( NAMED_UNIT ( * ) PLANE_ANGLE_UNIT ( ) SI_UNIT ( $, .RADIAN. ) );
#300 = FACE_BOUND ( 'NONE', #285, .T. ) ;
#301 = PRODUCT_DEFINITION_FORMATION_WITH_SPECIFIED_SOURCE ( 'ANY', '', #345, .NOT_KNOWN. ) ;
#302 = ADVANCED_FACE ( 'NONE', ( #282, #459 ), #169, .F. ) ;
#303 = CIRCLE ( 'NONE', #400, 25.75000000000000000 ) ;
#304 = FACE_BOUND ( 'NONE', #27, .T. ) ;
#305 = LINE ( 'NONE', #266, #208 ) ;
#306 = DIRECTION ( 'NONE',  ( 1.137523590804463822E-16, 0.000000000000000000, 1.000000000000000000 ) ) ;
#307 = ORIENTED_EDGE ( 'NONE', *, *, #234, .T. ) ;
#308 = ADVANCED_FACE ( 'NONE', ( #97 ), #167, .F. ) ;
#309 = FACE_OUTER_BOUND ( 'NONE', #170, .T. ) ;
#310 = EDGE_LOOP ( 'NONE', ( #296, #134, #158, #59 ) ) ;
#311 = DIRECTION ( 'NONE',  ( -1.000000000000000000, 0.000000000000000000, 1.224646799147353207E-16 ) ) ;
#312 = CARTESIAN_POINT ( 'NONE',  ( 1.999999999999994893, 0.000000000000000000, 9.797174393178831574E-16 ) ) ;
#313 = CARTESIAN_POINT ( 'NONE',  ( -5.999999999999999112, 0.000000000000000000, 1.959434878635764737E-15 ) ) ;
#314 = PRODUCT_RELATED_PRODUCT_CATEGORY ( 'part', '', ( #345 ) ) ;
#315 = ORIENTED_EDGE ( 'NONE', *, *, #357, .F. ) ;
#316 = AXIS2_PLACEMENT_3D ( 'NONE', #217, #404, #439 ) ;
#317 = AXIS2_PLACEMENT_3D ( 'NONE', #348, #350, #164 ) ;
#318 = DIRECTION ( 'NONE',  ( -1.137523590804463822E-16, 0.000000000000000000, -1.000000000000000000 ) ) ;
#319 = ORIENTED_EDGE ( 'NONE', *, *, #389, .T. ) ;
#320 = DIRECTION ( 'NONE',  ( 1.000000000000000000, -0.000000000000000000, -1.224646799147353207E-16 ) ) ;
#321 = ORIENTED_EDGE ( 'NONE', *, *, #291, .F. ) ;
#322 = EDGE_CURVE ( 'NONE', #34, #458, #152, .T. ) ;
#323 = EDGE_LOOP ( 'NONE', ( #106, #425, #176, #343 ) ) ;
#324 = AXIS2_PLACEMENT_3D ( 'NONE', #179, #329, #258 ) ;
#325 = VECTOR ( 'NONE', #92, 1000.000000000000000 ) ;
#326 = ORIENTED_EDGE ( 'NONE', *, *, #177, .F. ) ;
#327 =( NAMED_UNIT ( * ) SI_UNIT ( $, .STERADIAN. ) SOLID_ANGLE_UNIT ( ) );
#328 = EDGE_CURVE ( 'NONE', #9, #388, #216, .T. ) ;
#329 = DIRECTION ( 'NONE',  ( 1.000000000000000000, -0.000000000000000000, -1.224646799147353207E-16 ) ) ;
#330 = DIRECTION ( 'NONE',  ( 1.000000000000000000, -0.000000000000000000, -1.224646799147353207E-16 ) ) ;
#331 = AXIS2_PLACEMENT_3D ( 'NONE', #4, #290, #435 ) ;
#332 = AXIS2_PLACEMENT_3D ( 'NONE', #450, #156, #89 ) ;
#333 = PRESENTATION_STYLE_ASSIGNMENT (( #114 ) ) ;
#334 = ORIENTED_EDGE ( 'NONE', *, *, #109, .F. ) ;
#335 = SURFACE_STYLE_FILL_AREA ( #288 ) ;
#336 = CARTESIAN_POINT ( 'NONE',  ( 9.999999999999998224, 0.000000000000000000, 0.000000000000000000 ) ) ;
#337 = EDGE_CURVE ( 'NONE', #427, #195, #279, .T. ) ;
#338 = FACE_OUTER_BOUND ( 'NONE', #37, .T. ) ;
#339 = VECTOR ( 'NONE', #157, 1000.000000000000000 ) ;
#340 = DIRECTION ( 'NONE',  ( 1.000000000000000000, -0.000000000000000000, -1.224646799147353207E-16 ) ) ;
#341 = APPLICATION_PROTOCOL_DEFINITION ( 'draft international standard', 'automotive_design', 1998, #69 ) ;
#342 = LINE ( 'NONE', #91, #339 ) ;
#343 = ORIENTED_EDGE ( 'NONE', *, *, #328, .F. ) ;
#344 = CYLINDRICAL_SURFACE ( 'NONE', #332, 4.000000000000000000 ) ;
#345 = PRODUCT ( 'bearing_brian', 'bearing_brian', '', ( #124 ) ) ;
#346 = CARTESIAN_POINT ( 'NONE',  ( -1.999999999999998224, 0.000000000000000000, 1.469576158976823553E-15 ) ) ;
#347 = CIRCLE ( 'NONE', #139, 4.000000000000000000 ) ;
#348 = CARTESIAN_POINT ( 'NONE',  ( -10.00000000000000000, 0.000000000000000000, 1.224646799147353256E-15 ) ) ;
#349 = EDGE_CURVE ( 'NONE', #448, #115, #431, .T. ) ;
#350 = DIRECTION ( 'NONE',  ( -1.000000000000000000, 0.000000000000000000, 1.224646799147353207E-16 ) ) ;
#351 = ORIENTED_EDGE ( 'NONE', *, *, #277, .T. ) ;
#352 = DIRECTION ( 'NONE',  ( -1.347358039593636719E-16, 0.000000000000000000, -1.000000000000000000 ) ) ;
#353 = CIRCLE ( 'NONE', #190, 15.24999999999999822 ) ;
#354 = ORIENTED_EDGE ( 'NONE', *, *, #203, .T. ) ;
#355 = CIRCLE ( 'NONE', #73, 25.75000000000000000 ) ;
#356 = CARTESIAN_POINT ( 'NONE',  ( 10.00000000000000178, 3.153465507804434404E-15, 25.75000000000000000 ) ) ;
#357 = EDGE_CURVE ( 'NONE', #161, #55, #87, .T. ) ;
#358 = VERTEX_POINT ( 'NONE', #65 ) ;
#359 = CYLINDRICAL_SURFACE ( 'NONE', #378, 25.75000000000000000 ) ;
#360 = ORIENTED_EDGE ( 'NONE', *, *, #349, .F. ) ;
#361 = DIRECTION ( 'NONE',  ( 0.000000000000000000, 0.000000000000000000, 1.000000000000000000 ) ) ;
#362 = EDGE_LOOP ( 'NONE', ( #98, #64, #319, #326 ) ) ;
#363 = AXIS2_PLACEMENT_3D ( 'NONE', #184, #330, #437 ) ;
#364 = AXIS2_PLACEMENT_3D ( 'NONE', #2, #142, #128 ) ;
#365 = CARTESIAN_POINT ( 'NONE',  ( 9.999999999999998224, 3.153465507804434404E-15, 25.75000000000000000 ) ) ;
#366 = SURFACE_SIDE_STYLE ('',( #335 ) ) ;
#367 = ORIENTED_EDGE ( 'NONE', *, *, #322, .T. ) ;
#368 =( NAMED_UNIT ( * ) SI_UNIT ( $, .STERADIAN. ) SOLID_ANGLE_UNIT ( ) );
#369 = CARTESIAN_POINT ( 'NONE',  ( 5.999999999999995559, 0.000000000000000000, 4.898587196589417759E-16 ) ) ;
#370 = VECTOR ( 'NONE', #418, 1000.000000000000000 ) ;
#371 = CARTESIAN_POINT ( 'NONE',  ( 5.999999999999995559, 0.000000000000000000, 4.898587196589417759E-16 ) ) ;
#372 = ADVANCED_FACE ( 'NONE', ( #211 ), #359, .T. ) ;
#373 = CARTESIAN_POINT ( 'NONE',  ( -5.999999999999994671, 3.153465507804434009E-15, 25.75000000000000000 ) ) ;
#374 = DIRECTION ( 'NONE',  ( -1.000000000000000000, 0.000000000000000000, 1.224646799147353207E-16 ) ) ;
#375 = EDGE_CURVE ( 'NONE', #388, #195, #105, .T. ) ;
#376 = CIRCLE ( 'NONE', #256, 15.24999999999999822 ) ;
#377 = CARTESIAN_POINT ( 'NONE',  ( 9.999999999999992895, 0.000000000000000000, -1.224646799147352468E-15 ) ) ;
#378 = AXIS2_PLACEMENT_3D ( 'NONE', #385, #173, #58 ) ;
#379 = ORIENTED_EDGE ( 'NONE', *, *, #221, .T. ) ;
#380 = FACE_OUTER_BOUND ( 'NONE', #17, .T. ) ;
#381 = EDGE_LOOP ( 'NONE', ( #351, #67 ) ) ;
#382 = CARTESIAN_POINT ( 'NONE',  ( 9.999999999999996447, 0.000000000000000000, -15.24999999999999822 ) ) ;
#383 = AXIS2_PLACEMENT_3D ( 'NONE', #245, #451, #133 ) ;
#384 = AXIS2_PLACEMENT_3D ( 'NONE', #107, #144, #295 ) ;
#385 = CARTESIAN_POINT ( 'NONE',  ( 9.999999999999998224, 0.000000000000000000, 0.000000000000000000 ) ) ;
#386 = ORIENTED_EDGE ( 'NONE', *, *, #322, .F. ) ;
#387 = FACE_OUTER_BOUND ( 'NONE', #310, .T. ) ;
#388 = VERTEX_POINT ( 'NONE', #200 ) ;
#389 = EDGE_CURVE ( 'NONE', #115, #165, #93, .T. ) ;
#390 = DIRECTION ( 'NONE',  ( 0.000000000000000000, 0.000000000000000000, 1.000000000000000000 ) ) ;
#391 = ORIENTED_EDGE ( 'NONE', *, *, #66, .T. ) ;
#392 = CIRCLE ( 'NONE', #364, 25.74999999999999645 ) ;
#393 = AXIS2_PLACEMENT_3D ( 'NONE', #346, #23, #228 ) ;
#394 = DIRECTION ( 'NONE',  ( -1.000000000000000000, -0.000000000000000000, 1.224646799147353207E-16 ) ) ;
#395 = ORIENTED_EDGE ( 'NONE', *, *, #286, .F. ) ;
#396 = CARTESIAN_POINT ( 'NONE',  ( -1.999999999999996225, 0.000000000000000000, 19.24999999999999645 ) ) ;
#397 = EDGE_LOOP ( 'NONE', ( #432, #140, #321, #81 ) ) ;
#398 = ORIENTED_EDGE ( 'NONE', *, *, #413, .T. ) ;
#399 = EDGE_CURVE ( 'NONE', #48, #9, #276, .T. ) ;
#400 = AXIS2_PLACEMENT_3D ( 'NONE', #171, #60, #424 ) ;
#401 = VECTOR ( 'NONE', #201, 1000.000000000000000 ) ;
#402 = CARTESIAN_POINT ( 'NONE',  ( -9.999999999999994671, 3.153465507804434798E-15, 25.75000000000000711 ) ) ;
#403 = UNCERTAINTY_MEASURE_WITH_UNIT (LENGTH_MEASURE( 1.000000000000000082E-05 ), #223, 'distance_accuracy_value', 'NONE');
#404 = DIRECTION ( 'NONE',  ( -1.000000000000000000, 0.000000000000000000, 1.224646799147353207E-16 ) ) ;
#405 = APPLICATION_CONTEXT ( 'automotive_design' ) ;
#406 = CYLINDRICAL_SURFACE ( 'NONE', #363, 25.74999999999999645 ) ;
#407 = DIRECTION ( 'NONE',  ( 1.000000000000000000, 0.000000000000000000, -1.224646799147353207E-16 ) ) ;
#408 = DIRECTION ( 'NONE',  ( -1.000000000000000000, 0.000000000000000000, 1.224646799147353207E-16 ) ) ;
#409 = DIRECTION ( 'NONE',  ( -1.347358039593636473E-16, 0.000000000000000000, -1.000000000000000000 ) ) ;
#410 = AXIS2_PLACEMENT_3D ( 'NONE', #436, #407, #264 ) ;
#411 = DIRECTION ( 'NONE',  ( 0.000000000000000000, -1.224646799147353454E-16, 1.000000000000000000 ) ) ;
#412 = CARTESIAN_POINT ( 'NONE',  ( 5.999999999999991118, 0.000000000000000000, -25.75000000000000000 ) ) ;
#413 = EDGE_CURVE ( 'NONE', #137, #388, #353, .T. ) ;
#414 = LINE ( 'NONE', #382, #370 ) ;
#415 = ORIENTED_EDGE ( 'NONE', *, *, #337, .F. ) ;
#416 = CARTESIAN_POINT ( 'NONE',  ( 9.999999999999992895, 0.000000000000000000, 3.999999999999999112 ) ) ;
#417 = CARTESIAN_POINT ( 'NONE',  ( 9.999999999999994671, 0.000000000000000000, -25.74999999999999645 ) ) ;
#418 = DIRECTION ( 'NONE',  ( 1.000000000000000000, -0.000000000000000000, -1.224646799147353207E-16 ) ) ;
#419 = ADVANCED_FACE ( 'NONE', ( #1 ), #75, .T. ) ;
#420 = MANIFOLD_SOLID_BREP ( 'Cut-Extrude1', #452 ) ;
#421 = DIRECTION ( 'NONE',  ( 1.000000000000000000, -0.000000000000000000, -1.224646799147353207E-16 ) ) ;
#422 = AXIS2_PLACEMENT_3D ( 'NONE', #284, #320, #461 ) ;
#423 = EDGE_LOOP ( 'NONE', ( #386, #192 ) ) ;
#424 = DIRECTION ( 'NONE',  ( -1.347358039593636473E-16, 0.000000000000000000, -1.000000000000000000 ) ) ;
#425 = ORIENTED_EDGE ( 'NONE', *, *, #35, .T. ) ;
#426 = DIRECTION ( 'NONE',  ( 1.000000000000000000, -0.000000000000000000, -1.224646799147353207E-16 ) ) ;
#427 = VERTEX_POINT ( 'NONE', #3 ) ;
#428 = CARTESIAN_POINT ( 'NONE',  ( 1.999999999999997113, 2.357445088358654363E-15, 19.24999999999999645 ) ) ;
#429 = ORIENTED_EDGE ( 'NONE', *, *, #221, .F. ) ;
#430 = TOROIDAL_SURFACE ( 'NONE', #393, 19.24999999999999645, 4.000000000000000000 ) ;
#431 = LINE ( 'NONE', #33, #441 ) ;
#432 = ORIENTED_EDGE ( 'NONE', *, *, #46, .F. ) ;
#433 = CARTESIAN_POINT ( 'NONE',  ( 5.999999999999992895, 0.000000000000000000, -19.24999999999999645 ) ) ;
#434 = ADVANCED_FACE ( 'NONE', ( #220 ), #406, .T. ) ;
#435 = DIRECTION ( 'NONE',  ( -1.347358039593636719E-16, 0.000000000000000000, -1.000000000000000000 ) ) ;
#436 = CARTESIAN_POINT ( 'NONE',  ( -10.00000000000000000, 0.000000000000000000, 2.449293598294706119E-15 ) ) ;
#437 = DIRECTION ( 'NONE',  ( -1.347358039593636719E-16, 0.000000000000000000, -1.000000000000000000 ) ) ;
#438 = VERTEX_POINT ( 'NONE', #433 ) ;
#439 = DIRECTION ( 'NONE',  ( 1.224646799147353207E-16, 0.000000000000000000, 1.000000000000000000 ) ) ;
#440 = FACE_OUTER_BOUND ( 'NONE', #423, .T. ) ;
#441 = VECTOR ( 'NONE', #394, 1000.000000000000000 ) ;
#442 = AXIS2_PLACEMENT_3D ( 'NONE', #136, #248, #240 ) ;
#443 = DIRECTION ( 'NONE',  ( 1.224646799147353207E-16, 0.000000000000000000, 1.000000000000000000 ) ) ;
#444 = FACE_OUTER_BOUND ( 'NONE', #362, .T. ) ;
#445 = DIRECTION ( 'NONE',  ( -1.000000000000000000, -0.000000000000000000, 1.224646799147353207E-16 ) ) ;
#446 = AXIS2_PLACEMENT_3D ( 'NONE', #377, #151, #84 ) ;
#447 = DIRECTION ( 'NONE',  ( 0.000000000000000000, 0.000000000000000000, 1.000000000000000000 ) ) ;
#448 = VERTEX_POINT ( 'NONE', #77 ) ;
#449 = EDGE_CURVE ( 'NONE', #438, #358, #265, .T. ) ;
#450 = CARTESIAN_POINT ( 'NONE',  ( 9.999999999999992895, 0.000000000000000000, -1.224646799147352468E-15 ) ) ;
#451 = DIRECTION ( 'NONE',  ( 1.000000000000000000, 0.000000000000000000, -1.224646799147353207E-16 ) ) ;
#452 = CLOSED_SHELL ( 'NONE', ( #187, #308, #53, #372, #88, #434, #20, #272, #162, #101, #302, #419, #455, #251, #259, #215 ) ) ;
#453 = DIRECTION ( 'NONE',  ( -1.000000000000000000, 0.000000000000000000, 1.224646799147353207E-16 ) ) ;
#454 = AXIS2_PLACEMENT_3D ( 'NONE', #227, #374, #443 ) ;
#455 = ADVANCED_FACE ( 'NONE', ( #178, #297 ), #253, .F. ) ;
#456 = EDGE_LOOP ( 'NONE', ( #246, #132 ) ) ;
#457 = DIRECTION ( 'NONE',  ( -1.499759782661857608E-32, 1.000000000000000000, -1.224646799147353207E-16 ) ) ;
#458 = VERTEX_POINT ( 'NONE', #402 ) ;
#459 = FACE_OUTER_BOUND ( 'NONE', #61, .T. ) ;
#460 = ORIENTED_EDGE ( 'NONE', *, *, #96, .T. ) ;
#461 = DIRECTION ( 'NONE',  ( -1.347358039593636473E-16, 0.000000000000000000, -1.000000000000000000 ) ) ;
#462 = ORIENTED_EDGE ( 'NONE', *, *, #286, .T. ) ;
#463 = CIRCLE ( 'NONE', #198, 15.24999999999999822 ) ;
ENDSEC;
END-ISO-10303-21;
